<svg width="23" height="32" viewBox="0 0 23 32" fill="none" xmlns="http://www.w3.org/2000/svg">
<path fill-rule="evenodd" clip-rule="evenodd" d="M6 0C2.68629 0 0 2.68629 0 6V23.8571C0 26.7853 2.25896 29.1859 5.12926 29.4113C6.00122 30.8759 7.6003 31.8571 9.42857 31.8571H17.7143C20.4757 31.8571 22.7143 29.6186 22.7143 26.8571V9.42857C22.7143 7.6003 21.733 6.00122 20.2684 5.12926C20.0431 2.25895 17.6425 0 14.7143 0H6ZM18.104 4.44353C17.6318 3.02381 16.2926 2 14.7143 2H6C3.79086 2 2 3.79086 2 6V23.8571C2 25.4355 3.02381 26.7746 4.44353 27.2468C4.43362 27.1182 4.42857 26.9883 4.42857 26.8571V9.42857C4.42857 6.66715 6.66715 4.42857 9.42857 4.42857H17.7143C17.8454 4.42857 17.9754 4.43362 18.104 4.44353ZM9.42857 6.42857H17.7143C19.3711 6.42857 20.7143 7.77172 20.7143 9.42857V26.8571C20.7143 28.514 19.3711 29.8571 17.7143 29.8571H9.42857C7.77172 29.8571 6.42857 28.514 6.42857 26.8571V9.42857C6.42857 7.77172 7.77172 6.42857 9.42857 6.42857Z" fill="white"/>
</svg>
