<svg width="63" height="30" viewBox="0 0 63 30" fill="none" xmlns="http://www.w3.org/2000/svg">
<path fill-rule="evenodd" clip-rule="evenodd" d="M0.390167 15.4996L0.909821 15.0535L0.469513 14.6732C7.86566 6.10919 18.7926 0.673041 30.9981 0.632586C43.3162 0.591758 54.4041 5.06014 61.8794 13.7708L61.6124 14H61.8235C61.8376 13.9827 61.8516 13.9654 61.8656 13.9481L61.9298 14H62V14.0567L62.6432 14.5768C55.2482 23.7239 43.9475 29.5901 31.2666 29.6321C18.9209 29.6731 7.84671 24.1851 0.390167 15.4996ZM61 14.9823V14.2823C53.7461 5.91973 43.0083 1.59278 31.0014 1.63258C19.1901 1.67173 8.60715 6.89044 1.39526 15.1325C8.66556 23.4405 19.3579 28.6716 31.2633 28.6321C43.146 28.5928 53.7856 23.3109 61 14.9823ZM31 28C38.1797 28 44 22.1797 44 15C44 7.8203 38.1797 2 31 2C23.8203 2 18 7.8203 18 15C18 22.1797 23.8203 28 31 28Z" fill="white"/>
</svg>
