<svg width="18" height="18" viewBox="0 0 18 18" fill="none" xmlns="http://www.w3.org/2000/svg">
<path fill-rule="evenodd" clip-rule="evenodd" d="M9 1.5C4.85786 1.5 1.5 4.85786 1.5 9H0.5C0.5 4.30558 4.30558 0.5 9 0.5C11.0974 0.5 13.0179 1.26014 14.5 2.51906V0.5H15.5V3.5V3.9099L15.0981 3.99029L12.5981 4.49029L12.4019 3.50971L13.7934 3.23142C12.4934 2.14987 10.8229 1.5 9 1.5ZM9 16.5C13.1421 16.5 16.5 13.1421 16.5 9H17.5C17.5 13.6944 13.6944 17.5 9 17.5C7.13139 17.5 5.40299 16.8966 4 15.8745V16.5H3V15V14.6096L3.37873 14.5149L5.37873 14.0149L5.62127 14.9851L4.77389 15.1969C5.97736 16.0194 7.43222 16.5 9 16.5Z" fill="white"/>
</svg>
